<?xml version="1.0" standalone="no"?><!DOCTYPE svg PUBLIC "-//W3C//DTD SVG 1.1//EN" "http://www.w3.org/Graphics/SVG/1.1/DTD/svg11.dtd"><svg t="1739004926968" class="icon" viewBox="0 0 1024 1024" version="1.1" xmlns="http://www.w3.org/2000/svg" p-id="4188" width="32" height="32" xmlns:xlink="http://www.w3.org/1999/xlink"><path d="M512 907.2c-18.56 0-35.84-7.232-48.896-20.48l-322.752-326.4a260.096 260.096 0 0 1-72.704-218.496A260.864 260.864 0 0 1 196.096 149.76c99.392-57.984 228.608-38.016 314.24 48.64L512 200.064l1.6-1.664c85.696-86.656 214.976-106.624 314.304-48.64a260.864 260.864 0 0 1 128.448 192 260.096 260.096 0 0 1-72.704 218.624l-322.752 326.4a68.224 68.224 0 0 1-48.896 20.416zM319.168 185.472c-30.784 0-61.184 7.68-88.448 23.68A192.576 192.576 0 0 0 135.68 350.72c-7.936 60.096 11.52 118.848 53.504 161.28l322.688 326.4 322.816-326.4c41.92-42.432 61.44-101.184 53.504-161.28a192.576 192.576 0 0 0-94.976-141.696c-72.32-42.24-167.232-26.688-230.848 37.632l-25.984 26.368a35.392 35.392 0 0 1-48.896 0l-26.048-26.368a201.6 201.6 0 0 0-142.336-61.248z m542.272 353.472h1.088-1.088z" fill="#764C46" p-id="4189"></path></svg>